# xmcd
#
# Track frame offsets: 
#        150
#        12230
#        24470
#        34242
#        45592
#        55345
#        66932
#        80160
#        92547
#        106447
#        118545
#
# Disc length: 1692 seconds
#
# Revision: 3
# Processed by: cddbd v1.5.2PL0 Copyright (c) Steve Scherf et al.
# Submitted via: ExactAudioCopy v1.3
#
DISCID=8c069a0b
DTITLE=Glen Campbell - Galveston
DYEAR=0
DGENRE=Country
TTITLE0=Galveston
TTITLE1=Take My Hand For A While
TTITLE2=If This Is Love
TTITLE3=Today
TTITLE4=Gotta Have Tenderness
TTITLE5=Friends
TTITLE6=Where's The Playground Susie
TTITLE7=Time
TTITLE8=Until It's Time For You To Go
TTITLE9=Oh What A Woman
TTITLE10=Every Time I Itch I Wind Up Scratchin' You
EXTD=
EXTT0=
EXTT1=
EXTT2=
EXTT3=
EXTT4=
EXTT5=
EXTT6=
EXTT7=
EXTT8=
EXTT9=
EXTT10=
PLAYORDER=
